HIERARCHY
ROOT Pelvis
{
	OFFSET 0.000000 0.000000 0.000000
	CHANNELS 6 Xposition Yposition Zposition Xrotation Yrotation Zrotation
	JOINT LeftUpLeg_virtual
	{
		OFFSET 0.000000 0.000000 0.000000
		CHANNELS 3 Xrotation Yrotation Zrotation
		JOINT LeftUpLeg
		{
			OFFSET 18.735201 -5.666702 -4.541200
			CHANNELS 3 Xrotation Yrotation Zrotation
			JOINT LeftLeg
			{
				OFFSET -0.021200 -31.938179 0.493100
				CHANNELS 3 Xrotation Yrotation Zrotation
				JOINT LeftFoot
				{
					OFFSET 0.021200 -31.938179 -4.336299
					CHANNELS 3 Xrotation Yrotation Zrotation
					JOINT LeftToeBase
					{
						OFFSET 0.943001 -26.722000 15.023500
						CHANNELS 3 Xrotation Yrotation Zrotation
						End Site
						{
							OFFSET 0 0 0
						}
					}
				}
			}
		}
	}
	JOINT RightUpLeg_virtual
	{
		OFFSET 0.000000 0.000000 0.000000
		CHANNELS 3 Xrotation Yrotation Zrotation
		JOINT RightUpLeg
		{
			OFFSET -18.735201 -5.666702 -4.541200
			CHANNELS 3 Xrotation Yrotation Zrotation
			JOINT RightLeg
			{
				OFFSET 0.018946 -31.938133 0.493100
				CHANNELS 3 Xrotation Yrotation Zrotation
				JOINT RightFoot
				{
					OFFSET -0.018946 -31.938126 -4.336299
					CHANNELS 3 Xrotation Yrotation Zrotation
					JOINT RightToeBase
					{
						OFFSET -0.943001 -26.722004 15.023500
						CHANNELS 3 Xrotation Yrotation Zrotation
						End Site
						{
							OFFSET 0 0 0
						}
					}
				}
			}
		}
	}
	JOINT Hips_virtual
	{
		OFFSET 0.000000 0.000000 0.000000
		CHANNELS 3 Xrotation Yrotation Zrotation
		JOINT Hips
		{
			OFFSET -0.000000 -0.000000 -0.000000
			CHANNELS 3 Xrotation Yrotation Zrotation
			JOINT Spine
			{
				OFFSET 0.000000 10.199997 -0.299500
				CHANNELS 3 Xrotation Yrotation Zrotation
				JOINT Spine1
				{
					OFFSET 0.000000 11.900002 -1.516600
					CHANNELS 3 Xrotation Yrotation Zrotation
					JOINT Spine2
					{
						OFFSET 0.000000 13.600006 -2.842500
						CHANNELS 3 Xrotation Yrotation Zrotation
						JOINT Neck_virtual
						{
							OFFSET 0.000000 0.000000 0.000000
							CHANNELS 3 Xrotation Yrotation Zrotation
							JOINT Neck
							{
								OFFSET 0.000000 9.624100 -2.890100
								CHANNELS 3 Xrotation Yrotation Zrotation
								JOINT Head
								{
									OFFSET 0.000000 14.068802 -1.351900
									CHANNELS 3 Xrotation Yrotation Zrotation
									End Site
									{
										OFFSET 0 0 0
									}
								}
							}
						}
						JOINT LeftShoulder_virtual
						{
							OFFSET 0.000000 0.000000 0.000000
							CHANNELS 3 Xrotation Yrotation Zrotation
							JOINT LeftShoulder
							{
								OFFSET 15.263000 10.923401 -0.547700
								CHANNELS 3 Xrotation Yrotation Zrotation
								JOINT LeftArm
								{
									OFFSET 25.438599 -2.830597 -13.032500
									CHANNELS 3 Xrotation Yrotation Zrotation
									JOINT LeftForeArm
									{
										OFFSET 29.960503 0.000000 0.000000
										CHANNELS 3 Xrotation Yrotation Zrotation
										JOINT LeftHand
										{
											OFFSET 27.849251 0.000000 0.000000
											CHANNELS 3 Xrotation Yrotation Zrotation
											End Site
											{
												OFFSET 0 0 0
											}
										}
									}
								}
							}
						}
						JOINT RightShoulder_virtual
						{
							OFFSET 0.000000 0.000000 0.000000
							CHANNELS 3 Xrotation Yrotation Zrotation
							JOINT RightShoulder
							{
								OFFSET -15.263000 10.923401 -0.547700
								CHANNELS 3 Xrotation Yrotation Zrotation
								JOINT RightArm
								{
									OFFSET -25.438599 -2.830597 -13.032500
									CHANNELS 3 Xrotation Yrotation Zrotation
									JOINT RightForeArm
									{
										OFFSET -29.960503 0.000000 0.000000
										CHANNELS 3 Xrotation Yrotation Zrotation
										JOINT RightHand
										{
											OFFSET -27.849251 0.000000 0.000000
											CHANNELS 3 Xrotation Yrotation Zrotation
											End Site
											{
												OFFSET 0 0 0
											}
										}
									}
								}
							}
						}
					}
				}
			}
		}
	}
}
MOTION
Frames: 10
Frame Time: 0.03333333
0.555485 56.347702 5.899975 0.000000 0.000000 0.000000 -22.195564 -17.811426 2.245007 -70.771538 -1.404331 22.427862 79.077403 -0.193013 0.404063 21.662722 -1.958539 -4.719663 0.000000 0.000000 0.000000 -29.385721 11.244019 0.538883 -67.813260 4.526956 -16.038024 79.326760 -1.593554 -2.563618 21.143728 -0.830863 6.223056 0.000000 0.000000 0.000000 1.416112 -1.935618 0.036255 7.909012 5.732340 -2.391886 10.235517 0.039144 -1.414997 3.952074 0.506648 -0.677423 0.000000 0.000000 0.000000 1.656170 0.297234 -0.409986 -1.238381 -0.124755 0.100962 0.000000 0.000000 0.000000 1.915667 -0.205866 -0.423453 0.651388 -10.168725 -5.134880 -6.402874 -21.654229 -58.349049 4.432875 -59.943222 -3.599257 0.000000 0.000000 0.000000 1.256401 -0.759108 0.261926 0.032883 1.443409 7.808475 -2.413140 24.607143 50.729512 4.455228 68.514365 2.950964 0.000000 0.000000 0.000000 
0.579404 56.322441 5.800280 0.000000 0.000000 0.000000 -22.329120 -18.105638 2.106377 -70.910423 -1.446408 22.359212 79.214178 -0.157618 0.427240 21.839935 -1.937824 -4.656573 0.000000 0.000000 0.000000 -29.564358 11.187469 0.498910 -67.997081 4.553794 -16.069224 79.357304 -1.629267 -2.524294 21.270913 -0.884552 6.225327 0.000000 0.000000 0.000000 1.447365 -1.991288 0.047610 7.972926 5.737809 -2.352179 10.278773 0.015759 -1.463574 3.967822 0.518528 -0.685418 0.000000 0.000000 0.000000 1.715960 0.305913 -0.433066 -1.217089 -0.127942 0.090316 0.000000 0.000000 0.000000 1.965564 -0.206897 -0.400675 0.733455 -10.246242 -4.988751 -6.651021 -21.657333 -58.557957 4.289977 -60.167177 -3.767754 0.000000 0.000000 0.000000 1.281251 -0.754569 0.232098 0.105791 1.322535 7.755076 -2.752470 24.671661 50.862226 4.173137 68.742883 3.202186 0.000000 0.000000 0.000000 
0.631024 56.276215 5.617090 0.000000 0.000000 0.000000 -22.570268 -18.650882 1.846509 -71.158147 -1.522069 22.230944 79.459935 -0.094268 0.463933 22.155708 -1.897810 -4.551221 0.000000 0.000000 0.000000 -29.884707 11.088552 0.420076 -68.326221 4.605127 -16.131208 79.402015 -1.691315 -2.450039 21.491219 -0.981237 6.237287 0.000000 0.000000 0.000000 1.508089 -2.090512 0.076707 8.090428 5.788462 -2.256835 10.346705 -0.021496 -1.554630 3.994786 0.539180 -0.703668 0.000000 0.000000 0.000000 1.828936 0.323692 -0.476049 -1.175669 -0.135086 0.070216 0.000000 0.000000 0.000000 2.055046 -0.208060 -0.360752 0.882610 -10.391183 -4.719594 -7.108928 -21.648218 -58.935517 4.005249 -60.591858 -4.095285 0.000000 0.000000 0.000000 1.332271 -0.747596 0.175826 0.242683 1.087631 7.647989 -3.406251 24.779528 51.136909 3.620097 69.158343 3.706958 0.000000 0.000000 0.000000 
0.714602 56.216579 5.376688 0.000000 0.000000 0.000000 -22.873772 -19.372419 1.498298 -71.463709 -1.617786 22.059696 79.767307 -0.014487 0.499017 22.546142 -1.840616 -4.436217 0.000000 0.000000 0.000000 -30.282487 10.970427 0.306680 -68.734161 4.675605 -16.221325 79.437340 -1.765013 -2.348111 21.753007 -1.103534 6.270080 0.000000 0.000000 0.000000 1.596623 -2.212265 0.132946 8.248561 5.940019 -2.087001 10.414269 -0.057784 -1.677239 4.026358 0.563437 -0.734776 0.000000 0.000000 0.000000 1.984428 0.350704 -0.533712 -1.116265 -0.147381 0.042678 0.000000 0.000000 0.000000 2.167462 -0.207083 -0.312108 1.074572 -10.583367 -4.365399 -7.715672 -21.601107 -59.416581 3.580969 -61.174897 -4.565093 0.000000 0.000000 0.000000 1.411256 -0.741455 0.098750 0.428751 0.751870 7.488071 -4.324878 24.899560 51.565220 2.818894 69.696869 4.463619 0.000000 0.000000 0.000000 
0.830691 56.152847 5.106704 0.000000 0.000000 0.000000 -23.186059 -20.181754 1.105505 -71.769387 -1.719534 21.866799 80.081468 0.070573 0.517759 22.941521 -1.768189 -4.343397 0.000000 0.000000 0.000000 -30.681968 10.858666 0.169173 -69.143426 4.756487 -16.332210 79.443843 -1.836523 -2.226839 22.008864 -1.233720 6.332376 0.000000 0.000000 0.000000 1.713287 -2.331512 0.223597 8.440377 6.232072 -1.838214 10.465807 -0.078997 -1.817667 4.057254 0.585865 -0.779122 0.000000 0.000000 0.000000 2.171348 0.386030 -0.600453 -1.041667 -0.165748 0.009934 0.000000 0.000000 0.000000 2.286200 -0.200000 -0.261839 1.284254 -10.793535 -3.966422 -8.412391 -21.488205 -59.934302 3.019882 -61.864022 -5.157249 0.000000 0.000000 0.000000 1.519104 -0.739251 0.007159 0.647604 0.333975 7.278927 -5.435602 25.005452 52.150294 1.804979 70.298233 5.457114 0.000000 0.000000 0.000000 
0.973968 56.094620 4.829724 0.000000 0.000000 0.000000 -23.456634 -20.993768 0.714740 -72.024249 -1.815708 21.674062 80.352128 0.152877 0.510440 23.282686 -1.682283 -4.294335 0.000000 0.000000 0.000000 -31.013280 10.777688 0.026051 -69.483453 4.836675 -16.450374 79.411727 -1.898270 -2.094902 22.229469 -1.359809 6.423830 0.000000 0.000000 0.000000 1.859813 -2.423611 0.349170 8.667925 6.666745 -1.530900 10.504119 -0.076486 -1.961687 4.085924 0.602574 -0.833341 0.000000 0.000000 0.000000 2.381007 0.427606 -0.671721 -0.954895 -0.189940 -0.026128 0.000000 0.000000 0.000000 2.400760 -0.181634 -0.212581 1.493052 -10.986664 -3.553534 -9.164048 -21.289058 -60.440522 2.323557 -62.609530 -5.853632 0.000000 0.000000 0.000000 1.654429 -0.742966 -0.093273 0.884847 -0.142934 7.027529 -6.647706 25.085408 52.876958 0.626815 70.923277 6.651890 0.000000 0.000000 0.000000 
1.134230 56.050724 4.562386 0.000000 0.000000 0.000000 -23.646899 -21.738435 0.365577 -72.192839 -1.897270 21.499077 80.541775 0.227421 0.474049 23.529604 -1.585647 -4.297744 0.000000 0.000000 0.000000 -31.226635 10.750386 -0.097870 -69.704273 4.905505 -16.557738 79.338630 -1.951482 -1.961802 22.403717 -1.478844 6.531061 0.000000 0.000000 0.000000 2.036229 -2.468620 0.501518 8.939422 7.209212 -1.207329 10.548116 -0.048504 -2.096777 4.114993 0.612142 -0.890846 0.000000 0.000000 0.000000 2.607950 0.472955 -0.744618 -0.858815 -0.217911 -0.064218 0.000000 0.000000 0.000000 2.509863 -0.146956 -0.161878 1.692111 -11.128172 -3.142103 -9.966037 -20.997832 -60.915233 1.491938 -63.373897 -6.641523 0.000000 0.000000 0.000000 1.813076 -0.753236 -0.198068 1.129749 -0.653271 6.743330 -7.862359 25.143511 53.708069 -0.655144 71.555521 7.990537 0.000000 0.000000 0.000000 
1.299221 56.028381 4.318902 0.000000 0.000000 0.000000 -23.734793 -22.367246 0.081905 -72.258156 -1.956480 21.351525 80.630192 0.290265 0.411311 23.662946 -1.483725 -4.352670 0.000000 0.000000 0.000000 -31.299714 10.797600 -0.177840 -69.783305 4.956235 -16.636626 79.223658 -2.004926 -1.838419 22.529142 -1.596120 6.628661 0.000000 0.000000 0.000000 2.237708 -2.456051 0.665505 9.263929 7.805846 -0.916866 10.622267 0.001453 -2.213927 4.150130 0.615173 -0.944114 0.000000 0.000000 0.000000 2.849013 0.520177 -0.817639 -0.755915 -0.245935 -0.103452 0.000000 0.000000 0.000000 2.620243 -0.092647 -0.104120 1.881003 -11.191612 -2.732601 -10.832267 -20.625961 -61.363219 0.526790 -64.133844 -7.513235 0.000000 0.000000 0.000000 1.988990 -0.769710 -0.304041 1.375291 -1.171587 6.436369 -8.985857 25.195779 54.588911 -1.971249 72.192245 9.398581 0.000000 0.000000 0.000000 
1.457298 56.032688 4.115619 0.000000 0.000000 0.000000 -23.714902 -22.854817 -0.131223 -72.219975 -1.986158 21.232485 80.615568 0.336585 0.328309 23.682291 -1.385545 -4.453882 0.000000 0.000000 0.000000 -31.237136 10.934545 -0.197892 -69.724354 4.988246 -16.676050 79.063975 -2.070637 -1.736186 22.602172 -1.721133 6.685977 0.000000 0.000000 0.000000 2.454387 -2.389312 0.823321 9.647062 8.406878 -0.697466 10.745475 0.067549 -2.308449 4.198081 0.612921 -0.987478 0.000000 0.000000 0.000000 3.101644 0.568393 -0.890006 -0.648327 -0.269671 -0.142912 0.000000 0.000000 0.000000 2.742233 -0.018102 -0.033742 2.063670 -11.164422 -2.316092 -11.771685 -20.199024 -61.802516 -0.560473 -64.873765 -8.460695 0.000000 0.000000 0.000000 2.176087 -0.791605 -0.409371 1.617143 -1.675432 6.114916 -9.942814 25.265054 55.458090 -3.247866 72.834214 10.794014 0.000000 0.000000 0.000000 
1.598629 56.066330 3.971321 0.000000 0.000000 0.000000 -23.594830 -23.197412 -0.283818 -72.090365 -1.980662 21.137175 80.512344 0.360059 0.232120 23.602646 -1.302993 -4.596028 0.000000 0.000000 0.000000 -31.063024 11.164406 -0.156879 -69.550792 5.006263 -16.675869 78.856296 -2.158628 -1.664570 22.614435 -1.862418 6.677451 0.000000 0.000000 0.000000 2.675588 -2.286046 0.959555 10.088940 8.979228 -0.562844 10.925373 0.143680 -2.379756 4.264969 0.605834 -1.018992 0.000000 0.000000 0.000000 3.362768 0.617245 -0.961146 -0.538019 -0.285729 -0.181341 0.000000 0.000000 0.000000 2.884558 0.074561 0.052011 2.244145 -11.049030 -1.881608 -12.768117 -19.749707 -62.251594 -1.740579 -65.577138 -9.467635 0.000000 0.000000 0.000000 2.369897 -0.818127 -0.513700 1.852203 -2.147594 5.783294 -10.685448 25.376256 56.259660 -4.415461 73.479394 12.099199 0.000000 0.000000 0.000000 
